# xmcd
#
# Track frame offsets: 
#        150
#        16732
#        32302
#        48490
#        65510
#        80930
#        99180
#        115880
#        131487
#        147040
#
# Disc length: 2159 seconds
#
# Revision: 0
# Processed by: cddbd v1.5.1PL2 Copyright (c) Steve Scherf et al.
# Submitted via: ExactAudioCopy v0.95a5
#
DISCID=7a086d0a
DTITLE=Ladysmith Black Mambazo - Homeless
DYEAR=1900
DGENRE=Acid
TTITLE0=Homeless
TTITLE1=Inhle Lentombi
TTITLE2=Nonathemba
TTITLE3=Isigcino
TTITLE4=Nkosi Yama Khosi
TTITLE5=Isitimela
TTITLE6=Zintombi
TTITLE7=Amabutho
TTITLE8=Baleka Mfana
TTITLE9=Vulani Amasango
EXTD=
EXTT0=
EXTT1=
EXTT2=
EXTT3=
EXTT4=
EXTT5=
EXTT6=
EXTT7=
EXTT8=
EXTT9=
PLAYORDER=
